<mxfile host="app.diagrams.net" modified="2025-03-08T21:03:49.060Z" agent="Mozilla/5.0 (Windows NT 10.0; Win64; x64) AppleWebKit/537.36 (KHTML, like Gecko) Chrome/134.0.0.0 Safari/537.36" etag="BEMpUdLP5Hw-d_uvcbOd" version="24.1.0" type="device" pages="2">
  <diagram name="Page-1" id="XLS3Ez0NWwYrUuOWq9qP">
    <mxGraphModel dx="3460" dy="2116" grid="1" gridSize="10" guides="1" tooltips="1" connect="1" arrows="1" fold="1" page="1" pageScale="1" pageWidth="850" pageHeight="1100" math="0" shadow="0">
      <root>
        <mxCell id="0" />
        <mxCell id="1" parent="0" />
        <mxCell id="NzwkNjiA9ADI6CX0WvwV-5" value="Shepherd" style="swimlane;fontStyle=1;align=center;verticalAlign=top;childLayout=stackLayout;horizontal=1;startSize=26;horizontalStack=0;resizeParent=1;resizeParentMax=0;resizeLast=0;collapsible=1;marginBottom=0;whiteSpace=wrap;html=1;" vertex="1" parent="1">
          <mxGeometry x="-1650" y="-304" width="160" height="90" as="geometry" />
        </mxCell>
        <mxCell id="NzwkNjiA9ADI6CX0WvwV-6" value="isSelected: boolean" style="text;strokeColor=none;fillColor=none;align=left;verticalAlign=top;spacingLeft=4;spacingRight=4;overflow=hidden;rotatable=0;points=[[0,0.5],[1,0.5]];portConstraint=eastwest;whiteSpace=wrap;html=1;" vertex="1" parent="NzwkNjiA9ADI6CX0WvwV-5">
          <mxGeometry y="26" width="160" height="26" as="geometry" />
        </mxCell>
        <mxCell id="NzwkNjiA9ADI6CX0WvwV-7" value="" style="line;strokeWidth=1;fillColor=none;align=left;verticalAlign=middle;spacingTop=-1;spacingLeft=3;spacingRight=3;rotatable=0;labelPosition=right;points=[];portConstraint=eastwest;strokeColor=inherit;" vertex="1" parent="NzwkNjiA9ADI6CX0WvwV-5">
          <mxGeometry y="52" width="160" height="8" as="geometry" />
        </mxCell>
        <mxCell id="NzwkNjiA9ADI6CX0WvwV-8" value="&lt;div&gt;xxxxx&lt;/div&gt;" style="text;strokeColor=none;fillColor=none;align=left;verticalAlign=top;spacingLeft=4;spacingRight=4;overflow=hidden;rotatable=0;points=[[0,0.5],[1,0.5]];portConstraint=eastwest;whiteSpace=wrap;html=1;" vertex="1" parent="NzwkNjiA9ADI6CX0WvwV-5">
          <mxGeometry y="60" width="160" height="30" as="geometry" />
        </mxCell>
        <mxCell id="NzwkNjiA9ADI6CX0WvwV-13" value="Entity" style="swimlane;fontStyle=1;align=center;verticalAlign=top;childLayout=stackLayout;horizontal=1;startSize=26;horizontalStack=0;resizeParent=1;resizeParentMax=0;resizeLast=0;collapsible=1;marginBottom=0;whiteSpace=wrap;html=1;" vertex="1" parent="1">
          <mxGeometry x="-1620" y="-470" width="160" height="90" as="geometry" />
        </mxCell>
        <mxCell id="NzwkNjiA9ADI6CX0WvwV-14" value="position: Position" style="text;strokeColor=none;fillColor=none;align=left;verticalAlign=top;spacingLeft=4;spacingRight=4;overflow=hidden;rotatable=0;points=[[0,0.5],[1,0.5]];portConstraint=eastwest;whiteSpace=wrap;html=1;" vertex="1" parent="NzwkNjiA9ADI6CX0WvwV-13">
          <mxGeometry y="26" width="160" height="26" as="geometry" />
        </mxCell>
        <mxCell id="NzwkNjiA9ADI6CX0WvwV-15" value="" style="line;strokeWidth=1;fillColor=none;align=left;verticalAlign=middle;spacingTop=-1;spacingLeft=3;spacingRight=3;rotatable=0;labelPosition=right;points=[];portConstraint=eastwest;strokeColor=inherit;" vertex="1" parent="NzwkNjiA9ADI6CX0WvwV-13">
          <mxGeometry y="52" width="160" height="8" as="geometry" />
        </mxCell>
        <mxCell id="NzwkNjiA9ADI6CX0WvwV-16" value="move(): void&lt;div&gt;&lt;br&gt;&lt;/div&gt;" style="text;strokeColor=none;fillColor=none;align=left;verticalAlign=top;spacingLeft=4;spacingRight=4;overflow=hidden;rotatable=0;points=[[0,0.5],[1,0.5]];portConstraint=eastwest;whiteSpace=wrap;html=1;" vertex="1" parent="NzwkNjiA9ADI6CX0WvwV-13">
          <mxGeometry y="60" width="160" height="30" as="geometry" />
        </mxCell>
        <mxCell id="NzwkNjiA9ADI6CX0WvwV-17" style="edgeStyle=orthogonalEdgeStyle;rounded=0;orthogonalLoop=1;jettySize=auto;html=1;exitX=0.5;exitY=0;exitDx=0;exitDy=0;entryX=0.478;entryY=1.011;entryDx=0;entryDy=0;entryPerimeter=0;" edge="1" parent="1" source="NzwkNjiA9ADI6CX0WvwV-5" target="NzwkNjiA9ADI6CX0WvwV-16">
          <mxGeometry relative="1" as="geometry" />
        </mxCell>
        <mxCell id="NzwkNjiA9ADI6CX0WvwV-40" style="edgeStyle=orthogonalEdgeStyle;rounded=0;orthogonalLoop=1;jettySize=auto;html=1;exitX=1;exitY=0.5;exitDx=0;exitDy=0;entryX=0;entryY=0.5;entryDx=0;entryDy=0;" edge="1" parent="1" source="NzwkNjiA9ADI6CX0WvwV-18" target="NzwkNjiA9ADI6CX0WvwV-26">
          <mxGeometry relative="1" as="geometry" />
        </mxCell>
        <mxCell id="NzwkNjiA9ADI6CX0WvwV-18" value="" style="whiteSpace=wrap;html=1;aspect=fixed;" vertex="1" parent="1">
          <mxGeometry x="-1183" y="-640" width="155" height="155" as="geometry" />
        </mxCell>
        <mxCell id="NzwkNjiA9ADI6CX0WvwV-20" value="Modèle" style="text;html=1;align=center;verticalAlign=middle;whiteSpace=wrap;rounded=0;" vertex="1" parent="1">
          <mxGeometry x="-1136" y="-631" width="60" height="30" as="geometry" />
        </mxCell>
        <mxCell id="NzwkNjiA9ADI6CX0WvwV-22" value="Shepherd&lt;div&gt;Entity&lt;/div&gt;&lt;div&gt;&lt;br&gt;&lt;/div&gt;" style="text;html=1;align=left;verticalAlign=middle;whiteSpace=wrap;rounded=0;" vertex="1" parent="1">
          <mxGeometry x="-1182" y="-591" width="152" height="30" as="geometry" />
        </mxCell>
        <mxCell id="NzwkNjiA9ADI6CX0WvwV-41" style="edgeStyle=orthogonalEdgeStyle;rounded=0;orthogonalLoop=1;jettySize=auto;html=1;exitX=0.5;exitY=0;exitDx=0;exitDy=0;" edge="1" parent="1" source="NzwkNjiA9ADI6CX0WvwV-23" target="NzwkNjiA9ADI6CX0WvwV-18">
          <mxGeometry relative="1" as="geometry" />
        </mxCell>
        <mxCell id="NzwkNjiA9ADI6CX0WvwV-42" style="edgeStyle=orthogonalEdgeStyle;rounded=0;orthogonalLoop=1;jettySize=auto;html=1;exitX=1;exitY=0.5;exitDx=0;exitDy=0;entryX=0.5;entryY=1;entryDx=0;entryDy=0;" edge="1" parent="1" source="NzwkNjiA9ADI6CX0WvwV-23" target="NzwkNjiA9ADI6CX0WvwV-26">
          <mxGeometry relative="1" as="geometry" />
        </mxCell>
        <mxCell id="NzwkNjiA9ADI6CX0WvwV-23" value="" style="whiteSpace=wrap;html=1;aspect=fixed;" vertex="1" parent="1">
          <mxGeometry x="-1183.5" y="-369" width="155" height="155" as="geometry" />
        </mxCell>
        <mxCell id="NzwkNjiA9ADI6CX0WvwV-24" value="Controlleur" style="text;html=1;align=center;verticalAlign=middle;whiteSpace=wrap;rounded=0;" vertex="1" parent="1">
          <mxGeometry x="-1134" y="-362" width="60" height="30" as="geometry" />
        </mxCell>
        <mxCell id="NzwkNjiA9ADI6CX0WvwV-25" value="&lt;div&gt;ReactionClick&lt;/div&gt;" style="text;html=1;align=left;verticalAlign=middle;whiteSpace=wrap;rounded=0;" vertex="1" parent="1">
          <mxGeometry x="-1180" y="-322" width="152" height="30" as="geometry" />
        </mxCell>
        <mxCell id="NzwkNjiA9ADI6CX0WvwV-43" style="edgeStyle=orthogonalEdgeStyle;rounded=0;orthogonalLoop=1;jettySize=auto;html=1;exitX=0;exitY=0.75;exitDx=0;exitDy=0;entryX=1;entryY=0;entryDx=0;entryDy=0;" edge="1" parent="1" source="NzwkNjiA9ADI6CX0WvwV-26" target="NzwkNjiA9ADI6CX0WvwV-23">
          <mxGeometry relative="1" as="geometry">
            <Array as="points">
              <mxPoint x="-950" y="-524" />
              <mxPoint x="-950" y="-369" />
            </Array>
          </mxGeometry>
        </mxCell>
        <mxCell id="NzwkNjiA9ADI6CX0WvwV-26" value="" style="whiteSpace=wrap;html=1;aspect=fixed;" vertex="1" parent="1">
          <mxGeometry x="-881.5" y="-640" width="155" height="155" as="geometry" />
        </mxCell>
        <mxCell id="NzwkNjiA9ADI6CX0WvwV-27" value="Vue" style="text;html=1;align=center;verticalAlign=middle;whiteSpace=wrap;rounded=0;" vertex="1" parent="1">
          <mxGeometry x="-834" y="-629" width="60" height="30" as="geometry" />
        </mxCell>
        <mxCell id="NzwkNjiA9ADI6CX0WvwV-28" value="ControlPanel&lt;div&gt;Screen&lt;/div&gt;&lt;div&gt;World&lt;/div&gt;" style="text;html=1;align=left;verticalAlign=middle;whiteSpace=wrap;rounded=0;" vertex="1" parent="1">
          <mxGeometry x="-878.5" y="-580" width="152" height="30" as="geometry" />
        </mxCell>
        <mxCell id="NzwkNjiA9ADI6CX0WvwV-44" value="Envoie de données" style="text;html=1;align=center;verticalAlign=middle;whiteSpace=wrap;rounded=0;" vertex="1" parent="1">
          <mxGeometry x="-990" y="-599" width="60" height="30" as="geometry" />
        </mxCell>
        <mxCell id="NzwkNjiA9ADI6CX0WvwV-45" value="Déclaration de changement" style="text;html=1;align=center;verticalAlign=middle;whiteSpace=wrap;rounded=0;" vertex="1" parent="1">
          <mxGeometry x="-1190" y="-440" width="80" height="30" as="geometry" />
        </mxCell>
        <mxCell id="NzwkNjiA9ADI6CX0WvwV-46" value="Mise à jour" style="text;html=1;align=center;verticalAlign=middle;whiteSpace=wrap;rounded=0;" vertex="1" parent="1">
          <mxGeometry x="-802" y="-399" width="80" height="30" as="geometry" />
        </mxCell>
        <mxCell id="NzwkNjiA9ADI6CX0WvwV-47" value="Envoie d&#39;événements" style="text;html=1;align=center;verticalAlign=middle;whiteSpace=wrap;rounded=0;" vertex="1" parent="1">
          <mxGeometry x="-1030" y="-460" width="80" height="30" as="geometry" />
        </mxCell>
      </root>
    </mxGraphModel>
  </diagram>
  <diagram id="NeHYi-xPAMOg_3Ob0aaJ" name="Page-2">
    <mxGraphModel dx="880" dy="522" grid="1" gridSize="10" guides="1" tooltips="1" connect="1" arrows="1" fold="1" page="1" pageScale="1" pageWidth="850" pageHeight="1100" math="0" shadow="0">
      <root>
        <mxCell id="0" />
        <mxCell id="1" parent="0" />
      </root>
    </mxGraphModel>
  </diagram>
</mxfile>
